<svg id="visual" viewBox="0 0 900 600" width="900" height="600" xmlns="http://www.w3.org/2000/svg" xmlns:xlink="http://www.w3.org/1999/xlink" version="1.1"><g stroke-width="1" stroke-linejoin="bevel"><path d="M427 301L477 312L431 239Z" fill="#f5f5f5" stroke="#f5f5f5"></path><path d="M477 312L535 227L431 239Z" fill="#f5f5f5" stroke="#f5f5f5"></path><path d="M300 278L388 399L427 301Z" fill="#f5f5f5" stroke="#f5f5f5"></path><path d="M427 301L388 399L477 312Z" fill="#f9f9f9" stroke="#f9f9f9"></path><path d="M523 418L566 389L477 312Z" fill="#f5f5f5" stroke="#f5f5f5"></path><path d="M477 312L629 296L535 227Z" fill="#ececec" stroke="#ececec"></path><path d="M388 399L523 418L477 312Z" fill="#fdfdfd" stroke="#fdfdfd"></path><path d="M431 239L300 278L427 301Z" fill="#f1f1f1" stroke="#f1f1f1"></path><path d="M427 82L310 195L431 239Z" fill="#fdfdfd" stroke="#fdfdfd"></path><path d="M431 239L310 195L300 278Z" fill="#fdfdfd" stroke="#fdfdfd"></path><path d="M629 296L616 203L535 227Z" fill="#ececec" stroke="#ececec"></path><path d="M535 227L427 82L431 239Z" fill="#eeeeee" stroke="#eeeeee"></path><path d="M566 389L629 296L477 312Z" fill="#ececec" stroke="#ececec"></path><path d="M505 69L427 82L535 227Z" fill="#f3f3f3" stroke="#f3f3f3"></path><path d="M616 203L588 109L535 227Z" fill="#f1f1f1" stroke="#f1f1f1"></path><path d="M588 109L505 69L535 227Z" fill="#f9f9f9" stroke="#f9f9f9"></path><path d="M299 409L411 476L388 399Z" fill="#eeeeee" stroke="#eeeeee"></path><path d="M388 399L411 476L523 418Z" fill="#eeeeee" stroke="#eeeeee"></path><path d="M300 278L299 409L388 399Z" fill="#f0f0f0" stroke="#f0f0f0"></path><path d="M694 431L686 292L629 296Z" fill="#ececec" stroke="#ececec"></path><path d="M629 296L686 292L616 203Z" fill="#fbfbfb" stroke="#fbfbfb"></path><path d="M616 203L729 65L588 109Z" fill="#f0f0f0" stroke="#f0f0f0"></path><path d="M179 161L229 316L300 278Z" fill="#eeeeee" stroke="#eeeeee"></path><path d="M300 278L229 316L299 409Z" fill="#f5f5f5" stroke="#f5f5f5"></path><path d="M686 292L707 223L616 203Z" fill="#fdfdfd" stroke="#fdfdfd"></path><path d="M411 476L478 526L523 418Z" fill="#fbfbfb" stroke="#fbfbfb"></path><path d="M686 467L694 431L566 389Z" fill="#f5f5f5" stroke="#f5f5f5"></path><path d="M566 389L694 431L629 296Z" fill="#f9f9f9" stroke="#f9f9f9"></path><path d="M480 600L478 526L395 600Z" fill="#f7f7f7" stroke="#f7f7f7"></path><path d="M605 0L495 0L505 69Z" fill="#f1f1f1" stroke="#f1f1f1"></path><path d="M505 69L495 0L427 82Z" fill="#f7f7f7" stroke="#f7f7f7"></path><path d="M427 82L261 82L310 195Z" fill="#f7f7f7" stroke="#f7f7f7"></path><path d="M605 0L505 69L588 109Z" fill="#f7f7f7" stroke="#f7f7f7"></path><path d="M414 0L261 82L427 82Z" fill="#f5f5f5" stroke="#f5f5f5"></path><path d="M310 195L179 161L300 278Z" fill="#f9f9f9" stroke="#f9f9f9"></path><path d="M495 0L414 0L427 82Z" fill="#ececec" stroke="#ececec"></path><path d="M686 467L566 389L623 529Z" fill="#f1f1f1" stroke="#f1f1f1"></path><path d="M686 292L762 285L707 223Z" fill="#f1f1f1" stroke="#f1f1f1"></path><path d="M98 265L194 379L229 316Z" fill="#ffffff" stroke="#ffffff"></path><path d="M229 316L194 379L299 409Z" fill="#ffffff" stroke="#ffffff"></path><path d="M299 409L289 539L411 476Z" fill="#f0f0f0" stroke="#f0f0f0"></path><path d="M623 529L566 389L523 418Z" fill="#ececec" stroke="#ececec"></path><path d="M261 82L179 161L310 195Z" fill="#eeeeee" stroke="#eeeeee"></path><path d="M694 431L762 285L686 292Z" fill="#fdfdfd" stroke="#fdfdfd"></path><path d="M808 403L762 285L694 431Z" fill="#fdfdfd" stroke="#fdfdfd"></path><path d="M478 526L623 529L523 418Z" fill="#fdfdfd" stroke="#fdfdfd"></path><path d="M729 65L616 203L707 223Z" fill="#ececec" stroke="#ececec"></path><path d="M729 65L605 0L588 109Z" fill="#f7f7f7" stroke="#f7f7f7"></path><path d="M176 462L289 539L299 409Z" fill="#f7f7f7" stroke="#f7f7f7"></path><path d="M478 526L605 600L623 529Z" fill="#ececec" stroke="#ececec"></path><path d="M395 600L478 526L411 476Z" fill="#f3f3f3" stroke="#f3f3f3"></path><path d="M414 0L271 0L261 82Z" fill="#f9f9f9" stroke="#f9f9f9"></path><path d="M261 82L179 94L179 161Z" fill="#fdfdfd" stroke="#fdfdfd"></path><path d="M166 0L179 94L261 82Z" fill="#f3f3f3" stroke="#f3f3f3"></path><path d="M289 539L395 600L411 476Z" fill="#f0f0f0" stroke="#f0f0f0"></path><path d="M834 201L729 65L707 223Z" fill="#fbfbfb" stroke="#fbfbfb"></path><path d="M130 429L176 462L194 379Z" fill="#fdfdfd" stroke="#fdfdfd"></path><path d="M194 379L176 462L299 409Z" fill="#eeeeee" stroke="#eeeeee"></path><path d="M98 265L229 316L179 161Z" fill="#fdfdfd" stroke="#fdfdfd"></path><path d="M480 600L605 600L478 526Z" fill="#f5f5f5" stroke="#f5f5f5"></path><path d="M689 600L786 496L686 467Z" fill="#fdfdfd" stroke="#fdfdfd"></path><path d="M90 169L98 265L179 161Z" fill="#eeeeee" stroke="#eeeeee"></path><path d="M98 265L130 429L194 379Z" fill="#eeeeee" stroke="#eeeeee"></path><path d="M235 600L295 600L289 539Z" fill="#eeeeee" stroke="#eeeeee"></path><path d="M289 539L295 600L395 600Z" fill="#f3f3f3" stroke="#f3f3f3"></path><path d="M235 600L289 539L176 462Z" fill="#ececec" stroke="#ececec"></path><path d="M786 496L694 431L686 467Z" fill="#f9f9f9" stroke="#f9f9f9"></path><path d="M786 496L808 403L694 431Z" fill="#f0f0f0" stroke="#f0f0f0"></path><path d="M762 285L834 201L707 223Z" fill="#fbfbfb" stroke="#fbfbfb"></path><path d="M827 0L721 0L729 65Z" fill="#f3f3f3" stroke="#f3f3f3"></path><path d="M729 65L721 0L605 0Z" fill="#eeeeee" stroke="#eeeeee"></path><path d="M179 94L114 119L179 161Z" fill="#f7f7f7" stroke="#f7f7f7"></path><path d="M129 0L114 119L179 94Z" fill="#f9f9f9" stroke="#f9f9f9"></path><path d="M900 271L834 201L762 285Z" fill="#f1f1f1" stroke="#f1f1f1"></path><path d="M114 119L90 169L179 161Z" fill="#f7f7f7" stroke="#f7f7f7"></path><path d="M689 600L686 467L623 529Z" fill="#f9f9f9" stroke="#f9f9f9"></path><path d="M107 600L235 600L176 462Z" fill="#ffffff" stroke="#ffffff"></path><path d="M271 0L166 0L261 82Z" fill="#f1f1f1" stroke="#f1f1f1"></path><path d="M0 87L0 209L90 169Z" fill="#fbfbfb" stroke="#fbfbfb"></path><path d="M605 600L689 600L623 529Z" fill="#f7f7f7" stroke="#f7f7f7"></path><path d="M166 0L129 0L179 94Z" fill="#f5f5f5" stroke="#f5f5f5"></path><path d="M834 201L836 64L729 65Z" fill="#f0f0f0" stroke="#f0f0f0"></path><path d="M808 403L900 271L762 285Z" fill="#f7f7f7" stroke="#f7f7f7"></path><path d="M834 201L900 118L836 64Z" fill="#fbfbfb" stroke="#fbfbfb"></path><path d="M900 398L900 271L808 403Z" fill="#fdfdfd" stroke="#fdfdfd"></path><path d="M900 271L900 213L834 201Z" fill="#f3f3f3" stroke="#f3f3f3"></path><path d="M689 600L775 600L786 496Z" fill="#ececec" stroke="#ececec"></path><path d="M900 480L900 398L808 403Z" fill="#f0f0f0" stroke="#f0f0f0"></path><path d="M900 0L827 0L836 64Z" fill="#f3f3f3" stroke="#f3f3f3"></path><path d="M836 64L827 0L729 65Z" fill="#f0f0f0" stroke="#f0f0f0"></path><path d="M900 480L808 403L786 496Z" fill="#f1f1f1" stroke="#f1f1f1"></path><path d="M98 265L0 331L130 429Z" fill="#ffffff" stroke="#ffffff"></path><path d="M130 429L70 528L176 462Z" fill="#f0f0f0" stroke="#f0f0f0"></path><path d="M0 209L0 331L98 265Z" fill="#ffffff" stroke="#ffffff"></path><path d="M0 209L98 265L90 169Z" fill="#eeeeee" stroke="#eeeeee"></path><path d="M0 87L90 169L114 119Z" fill="#f5f5f5" stroke="#f5f5f5"></path><path d="M0 464L70 528L130 429Z" fill="#f5f5f5" stroke="#f5f5f5"></path><path d="M900 213L900 118L834 201Z" fill="#fdfdfd" stroke="#fdfdfd"></path><path d="M0 331L0 398L130 429Z" fill="#f1f1f1" stroke="#f1f1f1"></path><path d="M70 528L107 600L176 462Z" fill="#eeeeee" stroke="#eeeeee"></path><path d="M0 600L107 600L70 528Z" fill="#ececec" stroke="#ececec"></path><path d="M900 600L900 480L786 496Z" fill="#fdfdfd" stroke="#fdfdfd"></path><path d="M129 0L0 87L114 119Z" fill="#fdfdfd" stroke="#fdfdfd"></path><path d="M0 398L0 464L130 429Z" fill="#f9f9f9" stroke="#f9f9f9"></path><path d="M900 118L900 0L836 64Z" fill="#fdfdfd" stroke="#fdfdfd"></path><path d="M129 0L0 0L0 87Z" fill="#f3f3f3" stroke="#f3f3f3"></path><path d="M775 600L900 600L786 496Z" fill="#f3f3f3" stroke="#f3f3f3"></path><path d="M0 464L0 600L70 528Z" fill="#f0f0f0" stroke="#f0f0f0"></path></g></svg>